<?xml version="1.0" encoding="UTF-8" standalone="no"?>
<svg
   xmlns:dc="http://purl.org/dc/elements/1.1/"
   xmlns:cc="http://creativecommons.org/ns#"
   xmlns:rdf="http://www.w3.org/1999/02/22-rdf-syntax-ns#"
   xmlns:svg="http://www.w3.org/2000/svg"
   xmlns="http://www.w3.org/2000/svg"
   version="1.1"
   id="svg4778"
   viewBox="0 0 95.425289 51.3915"
   height="14.503823mm"
   width="26.931137mm">
  <defs
     id="defs4780" />
  <metadata
     id="metadata4783">
    <rdf:RDF>
      <cc:Work
         rdf:about="">
        <dc:format>image/svg+xml</dc:format>
        <dc:type
           rdf:resource="http://purl.org/dc/dcmitype/StillImage" />
        <dc:title></dc:title>
      </cc:Work>
    </rdf:RDF>
  </metadata>
  <g
     transform="translate(-115.1445,-852.38074)"
     id="layer1">
    <path
       id="path4608-0"
       d="m 115.23669,868.79574 0.1263,-4.672 c 0,0 -0.6314,0.1263 0.2525,0 0.8839,-0.1262 0.8839,-0.1262 0.8839,-0.1262 l 0,-4.9245 2.3991,-2.0203 0.3788,-3.1568 1.6415,-1.3889 2.1466,2.5253 1.894,-2.6516 2.0203,2.6516 3.7881,1.5153 4.5457,0.5051 0.7576,1.3889 5.4296,0.7576 4.0406,-2.5254 3.9143,0.3789 2.0203,2.2728 0,0 8.7126,-0.3788 10.2278,-2.9042 7.1973,0 4.672,2.1466 7.3236,7.4498 1.894,3.283 0.6314,4.2932 0.8838,4.9245 3.1568,6.3134 2.7779,1.5153 4.9245,-0.2526 5.3033,-4.5457 1.3889,-0.1262 -0.1262,3.5355 -4.672,4.2932 -2.9042,1.0101 -4.4194,0 -3.6618,-1.0101 -2.0203,-2.1466 -3.0304,-6.1872 0.3788,-2.1466 -2.9042,-2.7779 -1.6415,0.3788 -0.3788,3.283 3.283,2.3991 1.7677,2.7779 0.2526,11.4905 1.1364,0.3788 0.1263,2.0203 -2.2729,2.3992 -4.5457,0 -1.2627,-1.5153 -0.1262,-1.1364 2.9042,-2.0203 0.505,-5.6821 -4.1668,-4.672 -2.1466,-0.2525 -0.2526,3.283 -1.0101,1.3889 0,5.3033 1.0101,0.2526 0.1263,1.2627 -5.0508,6.8185 -4.5456,-0.1263 -1.1365,-1.5152 0.6314,-1.894 4.0406,-2.1466 0.3788,-2.6517 1.0102,-0.7576 0,-2.6516 -4.1669,-6.1872 0.1262,-3.6618 -2.0203,-1.389 -1.1364,-0.1262 -0.8839,1.6415 -2.3991,-0.3788 -2.6516,1.7677 -8.5863,0.2526 -1.389,-1.389 -2.6516,5.4296 -4.1669,3.4092 0,1.7678 -0.6314,0.7576 0.3788,1.5152 0.7577,0.3789 3.0304,3.5355 -2.9042,3.9143 -2.1465,-2.1465 -0.6314,-1.7678 -3.5355,-5.3033 0,-1.7678 3.5355,-5.0507 0,-4.4195 -2.7779,0.3788 -0.2525,2.3992 -2.1466,2.0203 -3.4093,6.1872 -1.1364,-0.1263 0.3788,2.0203 -4.1669,4.0406 0,1.1364 -1.0101,0.7576 -1.8941,1.1365 -4.4194,0.1262 -1.2627,-1.1364 0,-1.7678 1.5153,-1.0101 2.9041,0 2.3992,-2.0203 -0.1263,-1.6415 5.4296,-8.2075 0.1262,-7.1973 -2.2728,-2.2729 0.1262,-5.6821 -4.4194,-2.9042 -0.8839,-0.1263 0,-1.1364 -0.8838,0 -0.1263,1.0102 -1.6415,0 -2.6517,3.4092 -3.1567,-0.2525 -1.2627,-1.0102 c 0,0 0.7576,-2.0203 0.2526,-2.0203 -0.5051,0 -1.7678,-0.1262 -1.7678,-0.1262 z"
       style="fill:#000000;fill-opacity:1;fill-rule:evenodd;stroke:none;stroke-width:1px;stroke-linecap:butt;stroke-linejoin:miter;stroke-opacity:1" />
  </g>
</svg>
